# xmcd
#
# Track frame offsets:
#	150
#	11707
#	22162
#	35007
#	49145
#	62595
#	75470
#	89050
#	100967
#	114697
#	128890
#	139330
#	150237
#	163080
#	173905
#	186405
#	198859
#	211227
#	222409
#	234931
#
# Disc length: 3276 seconds
# Revision: 1
# Processed by: cddbd v1.5.2PL0 Copyright (c) Steve Scherf et al.
# Submitted via: dBpowerAMP V12.0
#
DISCID=1d0cca14
DTITLE=Various Artist - The Best of Country Legends
DYEAR=1997
DGENRE=Country
TTITLE0=Don Gibson - Sea of Heartbreak
TTITLE1=Connie Smith - Once A Day
TTITLE2=David Houston - My Elusive Dreams
TTITLE3=Jeannie Seely - Don't Touch Me
TTITLE4=Lynn Anderson - Top of the World
TTITLE5=Stonewall Jackson - Me and You and A Dog Named Boo
TTITLE6=Johnny Paycheck - (Don't Take Her) She's All I Got
TTITLE7=Donna Fargo - The Happiest Girl In the Whole U.S.A.
TTITLE8=Jimmy Dean - Big Bad John
TTITLE9=Barbara Fairchild - Teddy Bear Song
TTITLE10=Faron Young - Hello Walls
TTITLE11=Ferlin Husky - Wings of A Dove
TTITLE12=Kitty Wells - Making Believe
TTITLE13=Tommy Collins - You Better Not Do That
TTITLE14=Bobby Helms - Fraulein
TTITLE15=Johnny Russell - Rednecks, White Socks and Blue Ribbon Beer
TTITLE16=Porter Wagoner - A Satisfied Mind
TTITLE17=Carl Smith - Hey Joe!
TTITLE18=Tommy Cash - Six White Horses
TTITLE19=Faron Young - Wine Me Up
EXTD=
EXTT0=
EXTT1=
EXTT2=
EXTT3=
EXTT4=
EXTT5=
EXTT6=
EXTT7=
EXTT8=
EXTT9=
EXTT10=
EXTT11=
EXTT12=
EXTT13=
EXTT14=
EXTT15=
EXTT16=
EXTT17=
EXTT18=
EXTT19=
PLAYORDER=
